# xmcd CD database file
#
# Track frame offsets:
#	150
#	19535
#	34022
#	48385
#	67775
#	82335
#
# Disc length: 1285 seconds
#
# Revision: 0
# Processed by: cddbd v1.5.1PL0 Copyright (c) Steve Scherf et al.
# Submitted via: CDex 1.51
#
DISCID=42050306
DTITLE=C-C-B - Romanticが止まらない Remix Version
DYEAR=2005
DGENRE=JPop
TTITLE0=Romanticが止まらない Remix Version
TTITLE1=Romanticが止まらない Original Version
TTITLE2=Lucky Chanceをもう一度 Original Version
TTITLE3=Romanticが止まらない Remix Version(Backing Track)
TTITLE4=Romanticが止まらない Original Version(Backing Track)
TTITLE5=Lucky Chanceをもう一度 Original Version(Backing Track)
EXTD=YEAR: 2005.02.23
EXTT0=
EXTT1=
EXTT2=
EXTT3=
EXTT4=
EXTT5=
PLAYORDER=
